<?xml version="1.0" encoding="UTF-8" standalone="no"?>
<svg xmlns="http://www.w3.org/2000/svg" width="285" height="285" version="1.0">
  <defs>
    <filter id="b" width="2.0060354" height="1.9165016" x="-.50301772" y="-.45825078">
      <feGaussianBlur stdDeviation="13.281697"/>
    </filter>
    <filter id="c" width="1.4144776" height="1.3466659" x="-.20723881" y="-.17333295">
      <feGaussianBlur stdDeviation="5.3830739"/>
    </filter>
    <filter id="d" width="1.4578713" height="1.526506" x="-.22893564" y="-.26325302">
      <feGaussianBlur stdDeviation="6.3019835"/>
    </filter>
    <filter id="e" width="1.6045734" height="1.3701652" x="-.3022867" y="-.18508259">
      <feGaussianBlur stdDeviation="6.0682695"/>
    </filter>
    <filter id="f" width="1.9170227" height="1.5070957" x="-.45851133" y="-.25354784">
      <feGaussianBlur stdDeviation="6.8704245"/>
    </filter>
    <filter id="g" width="1.4903321" height="1.1542661" x="-.24516605" y="-.07713306">
      <feGaussianBlur stdDeviation="2.8215359"/>
    </filter>
    <filter id="h" width="1.2917816" height="1.7389524" x="-.14589081" y="-.36947621">
      <feGaussianBlur stdDeviation="5.175851"/>
    </filter>
    <filter id="i" width="1.6369953" height="1.2014722" x="-.31849767" y="-.10073612">
      <feGaussianBlur stdDeviation="3.6867729"/>
    </filter>
    <filter id="j" width="1.5378474" height="1.4496261" x="-.26892372" y="-.22481306">
      <feGaussianBlur stdDeviation="8.0592475"/>
    </filter>
    <filter id="k" width="1.4449638" height="1.4966487" x="-.22248188" y="-.24832436">
      <feGaussianBlur stdDeviation="3.0299453"/>
    </filter>
    <filter id="l" width="1.0658291" height="1.3806145" x="-.03291455" y="-.19030727">
      <feGaussianBlur stdDeviation=".45122379"/>
    </filter>
    <filter id="m" width="1.6472091" height="1.9672567" x="-.32360455" y="-.48362837">
      <feGaussianBlur stdDeviation="6.0923615"/>
    </filter>
    <filter id="n" width="1.2835215" height="1.6673019" x="-.14176077" y="-.33365095">
      <feGaussianBlur stdDeviation="4.244671"/>
    </filter>
    <filter id="o" width="1.346973" height="1.1067472" x="-.17348649" y="-.05337358">
      <feGaussianBlur stdDeviation="2.676807"/>
    </filter>
    <filter id="a" width="1.2755132" height="1.2755132" x="-.13775661" y="-.13775661">
      <feGaussianBlur stdDeviation="17.474569"/>
    </filter>
    <filter id="q">
      <feGaussianBlur stdDeviation="1.7740045"/>
    </filter>
    <filter id="s">
      <feGaussianBlur stdDeviation=".19025942"/>
    </filter>
    <filter id="p">
      <feGaussianBlur stdDeviation="5.3545049"/>
    </filter>
    <filter id="r" width="1.2379595" height="1.2997543" x="-.11897975" y="-.14987714">
      <feGaussianBlur stdDeviation=".98934896"/>
    </filter>
  </defs>
  <path d="M250.27368 125.0077a126.85104 126.85104 0 1 1-253.7020858 0 126.85104 126.85104 0 1 1 253.7020858 0z" filter="url(#a)" opacity=".69387758" transform="matrix(.7825 0 0 .52864 52.74282 128.99339)"/>
  <path fill="#aea59d" d="M245.16475852 128.18246784a108.43406007 107.42530252 0 1 1-216.86812014 0 108.43406007 107.42530252 0 1 1 216.86812014 0z"/>
  <path fill="#f3e5d8" fill-rule="evenodd" d="M97.764513 82.555725s15.399547-25.696669 37.269377-31.945188c3.07419-.878337 34.53032 5.137281 42.7955 13.744521 8.6009 8.956864 17.60981 40.094502 15.77069 42.159562-31.18503 35.01614-37.26939 32.61071-41.92806 32.61071-4.65868 0-42.59359-14.64155-42.59359-14.64155S97.098988 83.22125 97.764513 82.555725z" color="#000" enable-background="accumulate" overflow="visible" style="marker:none"/>
  <path fill="#211d12" fill-rule="evenodd" d="M53.839877 90.542023s3.327624-7.986298 14.641546-9.317348c11.31392-1.33105 29.28309-5.989722 29.948615 2.6621.665525 8.651822 9.317342 37.934915 9.317342 37.934915s3.99315 3.32762-5.98971 9.98287c-9.98288 6.65525-22.627851 19.30022-25.955475 22.62784-3.327623 3.32762-3.327623 1.99657-8.651822-.66552-2.987727-1.49388-11.670759-7.36322-17.661767-14.24577-4.685105-5.38228-7.46536-10.09162-6.297125-22.35809.930665-9.772 3.924439-15.29951 5.665187-19.221666 3.238531-7.29687 5.416068-7.399331 4.983209-7.399331z" color="#000" enable-background="accumulate" overflow="visible" style="marker:none"/>
  <path fill="#fff" fill-rule="evenodd" d="M41.468254 122.14286s3.015873-45.992066 10.555556-48.253971c7.539682-2.261905 29.404761-4.52381 29.404761 0 0 4.523809 13.571429 39.960321 12.817461 45.238091-.753969 5.27778-45.238095 18.09524-52.777778 3.01588z" color="#000" enable-background="accumulate" filter="url(#b)" opacity=".29081636" overflow="visible" style="marker:none" transform="matrix(.73146 0 0 .8827 35.48681 17.334297)"/>
  <path fill="#fff" fill-rule="evenodd" d="M107.81746 110.83333s-15.833333-39.960314 9.04762-54.285711c24.88095-14.325397 53.53174-9.801588 27.89682 20.357143-25.63492 30.158728-32.42063 26.388888-36.94444 33.928568z" color="#000" enable-background="accumulate" filter="url(#c)" overflow="visible" style="marker:none" transform="matrix(.8452 -.25454 .25454 .8452 5.753397 54.44819)"/>
  <path fill="#f5e7e4" fill-rule="evenodd" d="M55.836452 82.555725s-5.989723-15.30707-1.331049-21.296792c4.658672-5.989724 20.631268-33.941764 47.252267-35.938338 26.62098-1.996574 25.28993 1.33105 25.28993 1.33105s9.98288 22.627842 5.32421 23.958892c-4.65868 1.331048-35.272822 27.95204-35.938347 29.283089-.665525 1.331049-9.317346-4.658673-40.597011 2.662099z" color="#000" enable-background="accumulate" overflow="visible" style="marker:none"/>
  <path fill="#fff" fill-rule="evenodd" d="M104.04762 17.34127S49.761905 32.420635 49.007937 58.809524c-.753969 26.388889 55.793653-36.944445 55.039683-41.468254z" color="#000" enable-background="accumulate" filter="url(#d)" overflow="visible" style="marker:none" transform="translate(21.229164 17.334297) scale(.8827)"/>
  <path fill="#e7d9d0" fill-rule="evenodd" d="M107.74738 125.81484s-31.279661 26.62099-34.607283 32.61071c-3.327624 5.98972 10.648396 41.26253 10.648396 41.26253s31.945187 19.96575 49.248837 16.63813c17.30363-3.32762 34.60729-28.61757 34.60729-28.61757s-7.9863-43.2591-12.64497-46.58673c-4.65869-3.32763-44.59017-13.3105-47.25227-15.30707z" color="#000" enable-background="accumulate" overflow="visible" style="marker:none"/>
  <path fill="#fbf8f8" fill-rule="evenodd" d="M88.968254 201.30952c-3.769841-1.50793-29.404762-44.48412 14.325396-62.57936C147.02381 120.63492 79.920635 190 88.968254 201.30952z" color="#000" enable-background="accumulate" filter="url(#e)" overflow="visible" style="marker:none" transform="translate(21.229164 17.334297) scale(.8827)"/>
  <path fill="#e0d2c5" fill-rule="evenodd" d="M42.525957 131.13903s16.118543 20.7042 30.61414 27.95204c1.331048.66554-1.33105 0-.665525 9.31734.665525 9.31735 12.644969 34.6073 12.644969 34.6073s-17.303642 14.64154-19.300218 14.64154c-1.996574 0-24.624416-9.98287-37.269387-49.24884-4.275662-13.27705-3.548591-15.77062-1.542625-21.20973 3.92654-10.64667 14.637667-15.61915 15.518646-16.05965z" color="#000" enable-background="accumulate" overflow="visible" style="marker:none"/>
  <path fill="#f9f6f5" fill-rule="evenodd" d="M27.142857 142.5s18.095238 16.5873 24.126984 19.60317c6.031746 3.01588-9.047619 9.80159-3.769841 23.37302 5.277778 13.57143-21.865079-20.35714-24.126984-41.46825-2.261905-21.11111 2.261905-.75397 3.769841-1.50794z" color="#000" enable-background="accumulate" filter="url(#f)" overflow="visible" style="marker:none" transform="translate(21.229164 17.334297) scale(.8827)"/>
  <path fill="#252618" fill-rule="evenodd" d="M22.560213 139.12533s0 6.65524 2.662099 7.32077c2.662099.66553-.665524 9.31735 0 14.64154.665525 5.32421-3.327623-15.97259-2.662099-21.96231z" color="#000" enable-background="accumulate" overflow="visible" style="marker:none"/>
  <path fill="#e2d4c9" fill-rule="evenodd" d="M52.508829 63.255507s.665524 19.965743 1.996574 23.293366c1.331049 3.327625-13.310496 21.962317-13.310496 41.928067 0 19.96574-15.972595 18.63469-15.972595 18.63469l-1.996574-5.3242s-4.658673-50.579883 29.283091-78.531923z" color="#000" enable-background="accumulate" overflow="visible" style="marker:none"/>
  <path fill="#f7f2ef" fill-rule="evenodd" d="M33.174603 61.071429c0 3.769841 1.507937 17.341269 1.507937 17.341269S18.849206 113.09524 21.111111 128.1746c2.261905 15.07937-29.4047618 5.27778 12.063492-67.103171z" color="#000" enable-background="accumulate" filter="url(#g)" overflow="visible" style="marker:none" transform="translate(21.229164 17.334297) scale(.8827)"/>
  <path fill="#2c2a1e" fill-rule="evenodd" d="M178.29301 26.651644s-27.86947-7.89532-45.9212-1.331049c-7.32078 2.662097 1.99656 23.958891 1.99656 23.958891-.12786-.149165 24.77669 2.699891 47.9178 13.976021 1.79483.874579 12.64496-10.648397 19.30021-14.641546 5.70682-3.424094-18.63469-18.634693-23.29337-21.962317z" color="#000" enable-background="accumulate" overflow="visible" style="marker:none"/>
  <path fill="#555249" fill-rule="evenodd" d="M128.92857 17.34127s39.05284-28.177127 70.11905 15.833333c9.04762 12.817461-58.05556-15.833333-70.11905-15.833333z" color="#000" enable-background="accumulate" filter="url(#h)" overflow="visible" style="marker:none" transform="translate(21.229164 17.334297) scale(.8827)"/>
  <path fill="#b1a49c" fill-rule="evenodd" d="M184.94825 68.579705s-7.98629-1.33105 4.65868-9.982872c12.64498-8.651822 13.97602-10.648396 25.95546-2.662098 11.97945 7.986297 30.86394 34.523394 27.28652 64.555905-.49786 4.1796-17.96916 13.97602-17.96916 13.97602s-4.68733-3.36464-11.64612-9.68299c-7.66651-6.96096-16.47444-14.2759-19.63355-14.27591-.66552 0 3.99315-15.307064-8.65183-41.928055z" color="#000" enable-background="accumulate" overflow="visible" style="marker:none"/>
  <path fill="#bfb2aa" fill-rule="evenodd" d="M208.84921 109.3254s-21.86508-33.928575-16.58731-55.039686c5.27778-21.111111 27.89683-18.849206 19.60318 1.507937-8.29365 20.357143 12.06349 70.119049-3.01587 53.531749z" color="#000" enable-background="accumulate" filter="url(#i)" overflow="visible" style="marker:none" transform="translate(21.229164 17.334297) scale(.8827)"/>
  <path fill="#1d190e" fill-rule="evenodd" d="M208.90715 183.04997s-33.27624 7.98629-39.93149 3.32762c-6.65525-4.65867-3.42791-16.278-11.97944-43.92464-1.536-4.96578 18.88434-13.87628 33.94175-31.94518 3.32763-3.99315 33.27625 23.95889 33.27625 23.95889s.66553 43.2591-15.30707 48.58331z" color="#000" enable-background="accumulate" overflow="visible" style="marker:none"/>
  <path fill="#35362e" fill-rule="evenodd" d="M171.15079 150.79365s-17.34127 28.65079-.75396 36.19048c16.5873 7.53968 58.80952-13.57143 52.0238-42.97619-6.78571-29.40477-21.86507-27.14286-21.86507-27.14286s24.12698 15.83333 12.06349 35.43651c-12.06349 19.60317-42.97619 37.69841-41.46826-1.50794z" color="#000" enable-background="accumulate" filter="url(#j)" overflow="visible" style="marker:none" transform="translate(21.229164 17.334297) scale(.8827)"/>
  <path fill="#504e45" fill-rule="evenodd" d="M46.519105 67.248655s5.324198-7.986296 9.982871-7.986296c4.658674 0-1.996573-1.996576 12.644971-16.63812 14.641546-14.641546-21.296792 17.969169-22.627842 24.624416z" color="#000" enable-background="accumulate" overflow="visible" style="marker:none"/>
  <path fill="#e8e7e6" fill-rule="evenodd" d="M128.37865 25.986119s-19.30022-1.996574-27.95204-1.331049c-8.65182.665525 44.59025-12.569699 67.21801-1.331049.59606.296045-33.27625 1.331049-39.26597 2.662098z" color="#000" enable-background="accumulate" overflow="visible" style="marker:none"/>
  <path fill="#e8e7e6" fill-rule="evenodd" d="M128.37865 25.986119s-19.30022-1.996574-27.95204-1.331049c-8.65182.665525 44.59025-12.569699 67.21801-1.331049.59606.296045-33.27625 1.331049-39.26597 2.662098z" color="#000" enable-background="accumulate" overflow="visible" style="marker:none"/>
  <path fill="#fffbf8" fill-rule="evenodd" d="M116.3992 23.324021s14.64155 1.996574 23.29338 0c8.65182-1.996575-21.96232-.665526-23.29338 0z" color="#000" enable-background="accumulate" overflow="visible" style="marker:none"/>
  <path fill="#3b3b33" fill-rule="evenodd" d="M75.136671 226.30907s-9.982872-5.32419-2.662099-13.31048c7.320771-7.98631 15.307069-11.31393 19.965743-5.98973 4.658673 5.32419 34.607285 11.97945 38.600435 10.64839 3.99314-1.33104 7.9863 21.96232 7.9863 21.96232s-13.97602 5.98972-21.29679 3.99315c-7.32078-1.99657-28.617569-3.99315-42.593589-17.30365z" color="#000" enable-background="accumulate" overflow="visible" style="marker:none"/>
  <path fill="#6b665f" fill-rule="evenodd" d="M82.936508 248.80952s-36.190476-21.11111-24.880952-19.60317c2.862144.38162 3.800406-6.41977 6.935313-4.41567 3.665438 2.34326 3.826808 7.44184 7.097894 11.79933 4.985896 6.64182 12.207976 12.55957 10.847745 12.21951z" color="#000" enable-background="accumulate" filter="url(#k)" overflow="visible" style="marker:none" transform="matrix(.91878 -.34218 .60314 1.61946 -119.33471 -130.89547)"/>
  <path fill="#a6a199" fill-rule="evenodd" d="M123.71998 244.27824s26.62098 3.99315 43.25912-1.99657c16.6381-5.98972-19.30023 1.99657-27.28652-1.99657-7.98631-3.99315 5.3242 0-15.9726 3.99314z" color="#000" enable-background="accumulate" overflow="visible" style="marker:none"/>
  <path fill="#c4b8aa" fill-rule="evenodd" d="M125.9127 257.85714s24.12698-3.01587 27.14286-3.76984c3.01587-.75397-19.60318-3.01587-27.14286 3.76984z" color="#000" enable-background="accumulate" filter="url(#l)" overflow="visible" style="marker:none" transform="translate(21.229164 17.334297) scale(.8827)"/>
  <path fill="#beaea0" fill-rule="evenodd" d="M141.68915 212.99859s-7.9863 2.66209-7.9863 7.98629c0 5.32419 3.99314 8.65182 4.65868 16.63812.66552 7.98629 38.60043 2.6621 45.25567-1.99657 6.65526-4.65868 35.65745-17.37708 31.27967-39.26597-3.32762-16.63811-11.97945-11.31392-11.97945-11.31392s-25.95546 4.65867-33.27623 1.33105c-7.32078-3.32762-.66553 15.30707-27.95204 26.621z" color="#000" enable-background="accumulate" overflow="visible" style="marker:none"/>
  <path fill="#c5b8b1" fill-rule="evenodd" d="M161.34921 218.65079s34.68254 3.76984 16.5873 16.58731c-18.09524 12.81746-52.77778 14.32539-16.5873-16.58731z" color="#000" enable-background="accumulate" filter="url(#m)" overflow="visible" style="marker:none" transform="translate(21.229164 17.334297) scale(.8827)"/>
  <path fill="#a69687" fill-rule="evenodd" d="M152.30159 247.30159s49.7619-15.83334 58.80952-21.86508c9.04762-6.03175-41.46825 36.19047-58.80952 21.86508z" color="#000" enable-background="accumulate" filter="url(#n)" overflow="visible" style="marker:none" transform="translate(21.229164 17.334297) scale(.8827)"/>
  <path fill="#a19589" fill-rule="evenodd" d="M243.51444 121.15616s-13.97602 15.9726-17.96917 13.97602c-3.99316-1.99657 1.54466 38.30748-15.97259 47.91779-1.84514 1.01227 5.98971 16.63811 5.32419 24.62441-.66552 7.9863 11.31392-5.3242 11.31392-5.3242s35.27282-46.58673 17.30365-81.19402z" color="#000" enable-background="accumulate" overflow="visible" style="marker:none"/>
  <path fill="#a59f9d" fill-rule="evenodd" d="M250.31746 117.61905s7.53962 43.97968-27.14286 100.27778c-.79092 1.28386 43.73016-43.73016 27.14286-100.27778z" color="#000" enable-background="accumulate" filter="url(#o)" overflow="visible" style="marker:none" transform="translate(21.229164 17.334297) scale(.8827)"/>
  <path fill="#2e2e25" fill-rule="evenodd" d="M238.19024 82.555725c0 2.662099 9.31734 30.614145 3.99315 37.934915-5.32421 7.32077 2.78997 1.04908 5.32419 8.65183.66553 1.99657 7.32078 2.66209-9.31734-46.586745z" color="#000" enable-background="accumulate" overflow="visible" style="marker:none"/>
  <path fill="#aea39b" fill-rule="evenodd" d="M188.94141 32.641367s15.30707 13.310496 14.64154 16.63812c-.66553 3.327623 10.6484 3.327623 18.63469 11.313921 7.9863 7.986297-13.31049-17.969169-33.27623-27.952041z" color="#000" enable-background="accumulate" overflow="visible" style="marker:none"/>
  <path d="M109.29823 236.87145c-9.06272-1.65599-22.091321-6.30256-27.22013-9.7079-2.343762-1.55617-6.548289-4.94667-9.343392-7.53444-6.811564-6.30631-6.803993-7.7417.072142-13.67679 2.834783-2.44683 5.836339-5.29314 6.670126-6.32513.833787-1.032 2.559001-2.41573 3.833809-3.07496 2.083663-1.0775 2.513713-1.05007 4.256671.2715 6.85323 5.19639 28.860734 12.82834 38.988814 13.52088l3.23876.22146 2.73983 8.98654c1.5069 4.94259 3.14169 9.47073 3.63285 10.06255 1.12645 1.3573.25544 4.23143-1.56691 5.17039-5.01659 2.58479-17.11425 3.5821-25.30257 2.0859zm18.96568-3.24903c2.68433-.69917 5.0146-1.40524 5.17839-1.56902.16379-.16379-.09691-.98335-.57932-1.82126-.48241-.8379-1.95931-4.86335-3.282-8.94544l-2.40489-7.42197-5.22794-.9011c-12.77977-2.20276-31.230445-8.71142-35.575706-12.54969-1.381379-1.22021-1.696513-1.07926-4.535652 2.0286-1.678121 1.83695-4.813847 4.71939-6.968282 6.40543-2.154434 1.68604-3.917153 3.38187-3.917153 3.76851 0 1.39331 8.291806 9.73657 12.551743 12.62965 10.856626 7.37311 32.82728 11.48458 44.76081 8.37629zm76.26824-24.96668c1.3442-2.18459 3.38125-4.4736 4.52679-5.08667 1.14553-.61307 1.93-1.26747 1.74326-1.45422-.70347-.70346-4.64154 2.54147-6.25745 5.15607-2.84585 4.60466-4.43554 4.27305-2.05319-.4283 2.31992-4.57813 7.57421-8.15809 9.35701-6.37529.51974.51973.94498 1.32386.94498 1.78695 0 .9772-9.12021 10.37345-10.0687 10.37345-.35018 0 .46311-1.78739 1.8073-3.97199zm-43.48866-23.72106c-.45821-.49031-1.81535-4.94349-3.01588-9.89597-1.20053-4.95247-2.59137-10.67443-3.09076-12.71548-.49938-2.04104-1.8055-6.49422-2.90247-9.89596s-2.34078-7.27241-2.76403-8.60148c-.64339-2.02033-.42658-2.86615 1.3225-5.15933 1.15064-1.50855 3.89763-4.13211 6.10445-5.83014 4.72044-3.63212 14.08207-11.74762 21.04803-18.24631 2.72139-2.53883 5.30235-4.61986 5.73547-4.6245.43311-.00464 1.01274-.93618 1.28804-2.07009l.50057-2.06166.57939 2.25282c.35291 1.3722 1.62239 2.78888 3.24761 3.62417 4.25404 2.18638 14.24062 9.95834 21.05018 16.3821l6.27601 5.92045-.20445 6.52683c-.2467 7.87584-2.33313 16.43943-6.57109 26.97055-5.66465 14.07643-6.33971 14.59644-22.83043 17.58654-7.47342 1.35509-24.45496 1.24799-25.77314-.16254zm22.06216-3.19491c10.74882-1.57474 16.23952-2.8569 17.17621-4.01087 3.12166-3.84583 6.17552-11.49715 10.07339-25.23849 2.66951-9.41091 3.08166-15.27089 1.25729-17.87556-1.48341-2.11786-14.86448-12.97009-21.70008-17.59905l-5.15081-3.48806-5.15749 5.38152c-7.03049 7.33587-12.7755 13.76361-14.29508 15.9939-.69533 1.02052-1.69431 1.85549-2.21997 1.85549-1.35941 0-8.8467 7.5434-8.8467 8.913 0 .62738.83439 2.31128 1.85421 3.74199s1.90929 3.52904 1.97661 4.66296c.24181 4.07322 1.1647 10.3547 1.87802 12.78229.39982 1.36069 1.18349 5.33015 1.74149 8.82102.9949 6.22425 1.06427 6.35331 3.58558 6.6715 5.31336.67055 10.22589.502 17.82733-.61164zM29.264101 164.41222c-1.836405-4.39513-3.999643-20.23107-2.912178-21.31854.639888-.63988.892248-.48197.892248.55836 0 .85431.376884 1.21766.916864.88394 1.428353-.88277 2.364714 1.35065 2.271198 5.4173l-.085337 3.71098-1.129527-4.12332-1.129527-4.12332.40606 5.95164c.223333 3.2734.928342 8.19046 1.566687 10.92679 1.300986 5.57683.992228 6.39717-.796488 2.11617zm1.807053-3.91177c-.278194-1.03851-.473597-2.6304-.434229-3.53753.039368-.90713.411238-.2017.826378 1.56763.803997 3.42664.460416 5.15257-.392149 1.9699zm33.293122-8.73124c-7.954419-6.05754-17.954234-15.53307-19.454765-18.43478-4.198376-8.11876 5.138524-41.226863 13.166627-46.688087 4.242629-2.886104 13.717355-4.597373 25.834429-4.666062 13.466382-.076338 13.274203-.220877 15.816753 11.895851 2.17481 10.364248 5.49913 23.509968 7.0741 27.973908.627 1.77709.95231 3.94875.72292 4.82593-.44422 1.69871-4.92782 5.64045-11.008403 9.67799-2.041043 1.35527-7.82446 6.45393-12.852038 11.33038-6.622334 6.42325-9.6899 8.85534-11.132962 8.82669-1.106245-.02197-4.737398-2.13033-8.166661-4.74182zm16.615205-7.0102c4.236182-4.21753 10.343114-9.42908 13.570959-11.58121 8.65248-5.76895 9.48822-6.84094 8.46577-10.85899-.46051-1.80974-1.11865-4.59873-1.46253-6.19778-.34389-1.59904-1.07913-3.64009-1.633878-4.53565-.932524-1.50544-.971323-1.47275-.514218.43336.482628 2.01253.462975 2.02235-.824777.41233-.725552-.90713-1.150705-2.29838-.944783-3.09167.205921-.79329.038142-1.65016-.372842-1.90416-.410985-.254-.747245-1.2897-.747245-2.30155 0-1.01186-.510411-3.86597-1.134246-6.34248-.623836-2.476511-1.381041-5.554897-1.68268-6.840859-.301638-1.285962-1.515361-3.23423-2.697161-4.329485-1.1818-1.095256-1.753791-1.991373-1.271091-1.991373 2.084866 0 3.750017 1.244136 4.856033 3.628241l1.186103 2.556738-.498279-2.473992c-.837256-4.157036-2.919379-4.955528-11.953301-4.584079-4.856615.19969-15.861927 2.593205-19.969826 4.343181-3.116152 1.327489-4.359949 2.49919-6.259601 5.89677-5.174894 9.255438-9.188296 23.041668-9.216801 31.660168-.013893 4.20047.126984 4.46495 4.727498 8.87553 8.512888 8.16142 18.69402 16.89522 19.695022 16.89522.538849 0 4.445692-3.45072 8.681874-7.66826zm10.588473-12.04688c0-1.06032 8.211833-7.80847 8.793856-7.22643.97953.97952-.520025 2.89111-4.234364 5.39789-4.134208 2.79014-4.559492 2.9607-4.559492 1.82854zm7.92021-25.41803c-.27403-.27403-.468938.21304-.43313 1.08237.03957.96069.23498 1.1561.498234.49824.238222-.5953.208924-1.30658-.065104-1.58061zm-.77674-3.72817c-.228772-.56695-.415949-.10308-.415949 1.03083s.187177 1.59779.415949 1.03083c.228772-.56695.228772-1.4947 0-2.06166zm-.872588-3.693805c-.274029-.274028-.468938.213035-.43313 1.082375.039571.96068.23498 1.15609.498235.49823.238221-.5953.208923-1.30658-.065105-1.580605zm-.824664-4.123319c-.274029-.274029-.468938.213038-.43313 1.082371.039571.960686.234981 1.156096.498235.498235.238221-.595305.208923-1.306577-.065105-1.580606zm-.824664-3.298656c-.274029-.274028-.468938.213039-.43313 1.082371.039571.960687.234981 1.156097.498235.498235.238221-.595304.208923-1.306577-.065105-1.580606zm136.673272 31.73238c-1.29951-2.55655-1.90483-5.62448-2.23727-11.33913-.25066-4.30887-.71286-8.72731-1.02712-9.81875-.37912-1.31676-.27523-1.80143.30878-1.44049.48408.29918 1.30015 3.23323 1.81348 6.5201 1.70961 10.94655 2.32372 14.2011 3.18951 16.90293 1.21441 3.78979.06229 3.32572-2.04738-.82466zm2.77201-.76794c-.64384-1.54094-1.43607-5.38481-1.7605-8.54195-.32443-3.15712-1.15393-8.2713-1.84333-11.36483-1.3831-6.206363-.93704-8.146604.86889-3.779484 1.2128 2.932814 4.89863 25.494904 4.26796 26.125564-.19932.19932-.88917-.89836-1.53302-2.4393zm-22.13521-56.958533c-.69219-.566956-2.64459-2.770696-4.33866-4.897201-18.75163-17.495463-19.01965-19.051468 2.95125 2.010878 3.31437 3.923572 3.74337 4.816032 1.38741 2.886323z" filter="url(#p)" opacity=".62755103" transform="matrix(1.07037 0 0 1.07505 -5.2841088 -10.995271)"/>
  <path fill="#fff" fill-rule="evenodd" d="M127.99384 57.582368s10.44139 5.899579 20.58419 7.915835c10.89347 2.165481 21.61793.553229 23.9851 3.512186 4.57121 5.714011 18.28483-9.142417 22.85604-11.428021 4.57121-2.285604-10.28522 5.71401-14.85643 13.713626-4.57121 7.999615 7.99962 33.141266 4.57121 35.426866-3.42841 2.28561 5.71401-45.712086-57.14011-49.140492z" color="#000" enable-background="accumulate" filter="url(#q)" opacity=".45408164" overflow="visible" style="marker:none" transform="translate(-5.2841088 -9.8841888) scale(1.07037)"/>
  <path fill="#989898" fill-rule="evenodd" stroke="#fff" stroke-width=".63131315" d="m30.855659 145.57813 12.570824-12.57082 3.428406 2.28561s-14.856428 6.85681-15.99923 10.28521z" color="#000" enable-background="accumulate" filter="url(#r)" overflow="visible" style="marker:none" transform="translate(-5.2841088 -9.8841888) scale(1.07037)"/>
  <path fill="#191919" fill-rule="evenodd" stroke="#666" stroke-width=".63131315" d="m210.2756 145.57813 12.57082-12.57082 3.42841 2.28561s-14.85643 6.85681-15.99923 10.28521z" color="#000" enable-background="accumulate" filter="url(#s)" overflow="visible" style="marker:none" transform="matrix(.15732 -.31451 -1.19496 .47742 365.25214 131.66379)"/>
  <path fill="#151515" d="M111.20675762 244.24255168c-9.5954871-1.7725123-23.38998454-6.74607493-28.8202957-10.39104004-2.4815365-1.66568932-6.93323993-5.29478084-9.89265409-8.06465377-7.21197514-6.75007811-7.20396877-8.28648807.07638165-14.63923392 3.0014369-2.61900419 6.17944214-5.66562143 7.062241-6.77023319.88280955-1.10461175 2.7094398-2.58571567 4.05918783-3.29134678 2.20615155-1.15332432 2.6614765-1.12396406 4.50690245.29060562 7.25610652 5.56206308 30.55733592 13.73108869 41.28080096 14.47235244l3.429157.23704427 2.900897 9.61892821c1.5954837 5.29040303 3.3263693 10.13719095 3.84640885 10.77066839 1.19267115 1.4528033.27045054 4.52919826-1.6590209 5.53422274-5.31150004 2.76668322-18.1203253 3.83417453-26.79000605 2.23268603zm20.0805913-3.47766619c2.84213365-.748371 5.3093914-1.50412758 5.48281285-1.67943288.17341074-.1753053-.10261643-1.05253822-.61337587-1.94941245-.51077015-.89686353-2.07449597-5.20559756-3.47493675-9.57494668l-2.5462618-7.94425849-5.53527171-.96451094c-13.53104713-2.35776955-33.06635954-9.32443715-37.66705856-13.43281922-1.4625865-1.3060769-1.79625313-1.15519747-4.80229263 2.1713538-1.77677238 1.96622798-5.0968265 5.051507-7.37791469 6.85618395-2.28107749 1.80468765-4.14741848 3.61985422-4.14741848 4.03371302 0 1.49134735 8.77924388 10.42172756 13.28960363 13.51839534 11.49484902 7.89196017 34.75706342 12.29276749 47.39211402 8.96573455zm80.7517444-26.72360025c1.42321827-2.3383209 3.58002574-4.78840991 4.79290548-5.44462202 1.21286903-.6562121 2.04345521-1.35666262 1.84573636-1.55654363-.74482809-.7529736-4.91439254 2.72030407-6.62530502 5.51889504-3.01314676 4.92869268-4.69628312 4.57374709-2.17387987-.45842903 2.45629715-4.90029575 8.01946272-8.73217969 9.90707198-6.82393368.55028822.5563037 1.00052891 1.41702082 1.00052891 1.91269874 0 1.04596615-9.65634836 11.1034359-10.66060217 11.1034359-.37076567 0 .49033677-1.913159 1.91354433-4.25150132zm-46.04518106-25.39032522c-.48514547-.5248027-1.92206449-5.29136636-3.19317239-10.59235535-1.2711079-5.30097829-2.74370236-11.42558534-3.27245474-13.61027596-.52873096-2.1846692-1.91163907-6.95122215-3.07309821-10.59234464-1.16144844-3.64112248-2.4783789-7.78417385-2.92651096-9.2067713-.68121596-2.16249114-.45165358-3.0678427 1.40024811-5.52239516 1.21827441-1.61469686 4.12674963-4.42288906 6.46330443-6.24041045 4.99793496-3.88770376 14.90989853-12.57430706 22.28535137-19.53030307 2.88137343-2.7174997 5.61406169-4.94497303 6.07264056-4.94993955.45856817-.00496652 1.07227586-1.00204884 1.36375918-2.21576347l.529994-2.20674025.6134508 2.4113523c.37365568 1.46876253 1.71776285 2.98513515 3.43852274 3.879205 4.50411949 2.34023688 15.07777546 10.65912507 22.28764197 17.53492892l6.64494631 6.33706491-.21647175 6.98612695c-.26120254 8.43006758-2.4702869 17.59628255-6.95737679 28.86848378-5.9976504 15.06699683-6.71239036 15.62360024-24.17253248 18.82411537-7.91275747 1.4504592-25.89257522 1.3358118-27.28824215-.17397803zm23.35910435-3.41973774c11.3807047-1.6855554 17.19417642-3.05794176 18.1859283-4.29311733 3.30517597-4.11646336 6.53855148-12.30620064 10.6655687-27.01453768 2.82644201-10.07315068 3.2628107-16.3455117 1.3311985-19.13346318-1.570619-2.26690578-15.73830115-13.88281372-22.9757404-18.8375057l-5.45360243-3.73352759-5.46067758 5.7602208c-7.4437853 7.85211027-13.52651946 14.7321742-15.13543632 17.11940034-.7362009 1.0923453-1.79390902 1.98606194-2.35046962 1.98606194-1.43932734 0-9.3667596 8.07423358-9.3667596 9.54022386 0 .6715184.88344108 2.47392616 1.96320953 4.00530538 1.07976846 1.53138992 2.02152333 3.77739137 2.09281 4.9910953.25602195 4.35985493 1.23316327 11.08336644 1.98841677 13.6817874.42332087 1.45645328 1.25306145 5.70523586 1.8438632 9.44176048 1.05338383 6.6622542 1.12683266 6.80039624 3.79635834 7.14097746 5.62571802.717737 10.8270341.53732604 18.8753326-.65468148zM26.46774359 166.6843222c-1.9443603-4.70441793-4.23477143-21.65474253-3.08337378-22.81873845.67750178-.68490874.9446984-.51588652.9446984.59765213 0 .9144283.39904486 1.30334747.9707619.94614339 1.51232663-.94489106 2.50372528 1.44569605 2.404716 5.79851865l-.09034998 3.97212389-1.19593578-4.4134805-1.19591436-4.4134805.42992505 6.37046047c.23646627 3.50375112.98291062 8.76683829 1.65878543 11.69572547 1.37747063 5.96927488 1.05055804 6.847332-.84331288 2.26507545zm1.91328744-4.1870436c-.29455528-1.11159057-.50144721-2.81550283-.45975628-3.7864681.04168023-.97096529.43541606-.21588305.87495304 1.67794506.85125503 3.6677747.48747888 5.51515944-.41519676 2.10852304zm35.2502902-9.3456626c-8.4220291-6.48381272-19.00968553-16.62613075-20.5984366-19.73204653-4.44517418-8.6900713 5.44059742-44.12800817 13.94063513-49.97355355 4.4920457-3.0891998 14.52375164-4.9208929 27.35313872-4.99441558 14.25801073-.08170888 14.05453328-.23642025 16.74654745 12.73296489 2.30266686 11.09358849 5.82240932 25.1643807 7.48996108 29.94245083.66385455 1.90214489 1.0082891 4.2266259.76542202 5.1655443-.47034225 1.81823853-5.21751079 6.03736114-11.65554376 10.35902525-2.16102472 1.45065187-8.28443296 6.90809693-13.60755722 12.12770564-7.01163387 6.87525796-10.2595343 9.47849559-11.78742412 9.44782947-1.17128514-.02351604-5.01589578-2.2802426-8.6467427-5.07550472zm17.59193684-7.50350127c4.48521674-4.51433082 10.95115428-10.09262072 14.36874057-12.3961974 9.1611307-6.17491448 10.04599538-7.32234106 8.96344396-11.62313294-.48758592-1.9371032-1.18441859-4.9223561-1.54850515-6.6339322-.36410797-1.7115654-1.1425671-3.89624532-1.72993296-4.85482641-.98734195-1.61137872-1.02842278-1.5763883-.5444333.4638558.51098422 2.15416365.49017621 2.16466398-.87327256.4413459-.76820498-.97096527-1.21834934-2.46011837-1.00031485-3.30923266.2180238-.8491143.04037438-1.76628275-.39477408-2.03815689-.43513776-.27187413-.79116443-1.38045696-.79116443-2.46351145 0-1.0830652-.54041941-4.13800993-1.2009237-6.78880412-.6605043-2.6507835-1.46223328-5.94580165-1.78159975-7.32225543-.31936648-1.37645377-1.60444272-3.4618247-2.85571665-4.63415024-1.25127394-1.17232875-1.85688962-2.13150604-1.34580907-2.13150604 2.20742529 0 3.97046481 1.33168552 5.14149307 3.883555l1.2558337 2.73665933-.52757496-2.64808616c-.88647022-4.44956698-3.0909948-5.30424934-12.65597634-4.90666018-5.14212458.2137423-16.79439301 2.77568932-21.14377972 4.6488186-3.29934245 1.42089557-4.61625151 2.6750488-6.6275742 6.31171854-5.47910936 9.90675087-9.72843783 24.66313685-9.75862228 33.88811516-.0147069 4.4960596.13444925 4.77915121 5.00540615 9.50010637 9.01333393 8.73574402 19.79297202 18.08414677 20.85281018 18.08414677.57052893 0 4.70704034-3.69354924 9.19224637-8.20786935zm11.21093322-12.89463688c0-1.13493536 8.69457757-8.35794602 9.31081134-7.73495822 1.03710348 1.04844941-.55059864 3.09455915-4.48329008 5.77775347-4.37723775 2.98647312-4.82752126 3.16903553-4.82752126 1.95720475zm8.38580777-27.20671202c-.29013466-.29331366-.49650211.22804245-.45858958 1.15853702.0418943 1.02829434.24879694 1.23745545.52752144.53330145.25222213-.63718091.2212028-1.39852482-.06893186-1.69183847zm-.82239785-3.99051286c-.24223557-.60685731-.44040398-.1103445-.44040398 1.10335942 0 1.21370393.19816841 1.71023815.44040398 1.10337013.24221417-.60684661.24221417-1.59988294 0-2.20672955zm-.92389038-3.95375633c-.29013465-.29330295-.4965021.22803175-.45858958 1.15854773.0418943 1.02828363.24879694 1.23744475.52752145.53329075.25222213-.63719162.22121349-1.39852482-.06893187-1.69183848zm-.87314411-4.4134698c-.29013466-.29331365-.49650211.22802105-.45858958 1.15853703.041905 1.02829433.24879694 1.23745545.52752144.53329074.25222213-.63719161.2212028-1.39852481-.06893186-1.69182777zm-.87314412-3.53078868c-.29013465-.29331366-.4965021.22803175-.45858958 1.15853703.0418943 1.02829433.24879695 1.23746615.52753215.53330144.25222213-.63720232.2212028-1.39852481-.06894257-1.69183847zm144.70774712 33.96541732c-1.37590789-2.73646666-2.01681369-6.02028873-2.36879436-12.13708208-.26538768-4.61208777-.75476112-9.34145604-1.08749653-10.50970133-.40141038-1.4094212-.2914084-1.92819771.326934-1.54185815.51253626.32023348 1.37658222 3.46075434 1.9200843 6.97892335 1.81011442 11.7168653 2.46032175 15.20043993 3.37700854 18.09239933 1.28580409 4.0564798.06595624 3.55975291-2.16773595-.88268112zm2.9349669-.8219911c-.68168693-1.64937687-1.52049356-5.7637423-1.86399689-9.14304144-.34350333-3.37929913-1.22176382-8.85336705-1.95169234-12.16459061-1.46440613-6.64310528-.99212651-8.71988113.91997282-4.04544428 1.2840915 3.1391936 5.18659849 27.28900212 4.51885849 27.96403134-.21104497.21334626-.94144446-.96157814-1.62314209-2.610955zM172.76329985 63.7614125c-10.66312825-5.63909124-34.58186516-12.1272914-40.91577248-11.09882047-1.74786167.28380984-2.70425921.21684103-2.12533857-.1488179 1.19758415-.75641057.27600577-9.23200102-1.94671512-17.9035881-2.40833385-9.39582551-2.21155692-9.62045563 10.49869792-11.98418392 13.24568632-2.4633038 30.17727944.08877868 42.34741457 6.38298274 4.4140799 2.28289391 7.21479021 4.70034732 12.60181559 10.87733617 3.80951319 4.36815245 7.01773499 8.57127195 7.12937464 9.34026472.11165036.76899384-1.19507948 2.48056246-2.90384051 3.80348379-1.70875033 1.32292133-6.20397504 4.88789444-9.98939418 7.92216282-3.78540844 3.03426731-7.56011318 5.479043-8.38825891 5.4328351-.82812433-.0462079-3.66672575-1.22685236-6.30798295-2.62365495zm11.66243695-5.228648c2.46988016-1.93756024 4.88361938-3.83693394 5.36385185-4.22082985.48022177-.38389697 2.35298499-1.6155264 4.16170793-2.73695475l3.28857452-2.0389618-3.69700653-4.46398058c-10.72897745-12.95479064-25.14437547-19.51987125-43.0446968-19.60346505-9.07617538-.0423856-19.16698718 1.54739731-20.16300984 3.17663302-.2397523.39217736.66261292 4.0601533 2.0052644 8.15105622 2.11779245 6.45267136 2.81709768 7.62260249 5.27889654 8.8314769 1.56073948.76640783 2.83771301 1.80341926 2.83771301 2.3044683 0 .50104904 1.24736709.81491167 2.77192804.69747275 1.58106582-.12179105 2.92522652.25140543 3.12875749.86867638.19626315.59520848 1.63380298 1.0821982 3.19455317 1.0821982 1.56073948 0 3.10698614.27222521 3.436093.60494456.5990329.6055793 1.58642837.99687468 11.62054263 4.605125 2.95862208 1.06391627 7.28067153 2.88785775 9.60456384 4.05320447 2.32389231 1.16534673 4.5619302 2.13972756 4.97340207 2.1652923.41147186.02556472 2.76896311-1.53879475 5.23886468-3.47635607zm-48.77979598-10.6146972c-.30163043-.49340017-.91420353-.66856632-1.3612438-.38925204-1.21109223.7566803-.98526544 1.28634677.54843648 1.28634677.74868142 0 1.11443776-.40369241.81280732-.89709473zm-85.090984 13.73469477c-.85881184-1.04612564-.4416242-2.027785 2.24012512-5.2711128 3.25726618-3.93936734 12.57169536-12.53299933 12.57169536-11.5988334 0 .2655793-1.86968055 2.57244736-4.15483615 5.12637088-2.2851449 2.55392459-5.1098422 6.0337465-6.27707064 7.73293521-1.16723914 1.69918978.5565606.19457732 3.83067441-3.343583 3.27409241-3.5381614 6.1538817-6.22984697 6.39951034-5.98152634.24563935.24832063-.9614604 2.02711601-2.68244506 3.95287542-1.72097396 1.92576047-3.74471295 4.7049756-4.49719418 6.17603408-2.10093412 4.10721964-5.49040178 5.57004483-7.4304592 3.20683995zm170.97873047.18216637c-.73288275-.6068541-2.80005738-2.96567261-4.59372021-5.24182104-1.79366283-2.27614737-6.96638931-7.22037648-11.49493465-10.9871776-7.67640895-6.38514382-9.7745601-8.3956359-7.14230472-6.84389931 4.51247908 2.66015245 16.43473779 13.608056 21.76198297 19.9834616 3.50921 4.19967611 3.96343248 5.15494013 1.4689766 3.08943635z"/>
</svg>